<?xml version="1.0" encoding="UTF-8" standalone="no"?> <svg xmlns="http://www.w3.org/2000/svg" viewBox="0 0 58.67 64"><g id="Layer_2" data-name="Layer 2"><g id="Layer_1-2" data-name="Layer 1"><path class="cls-1" d="M10.67,11.89V2.67a2.67,2.67,0,0,0-5.34,0v9.22A9.82,9.82,0,0,1,8,11.55,9.82,9.82,0,0,1,10.67,11.89Z"/><path class="cls-1" d="M5.33,32.53v28.8a2.67,2.67,0,0,0,5.34,0V32.53A9.83,9.83,0,0,1,8,32.88,9.83,9.83,0,0,1,5.33,32.53Z"/><path class="cls-1" d="M32,37.68v-35a2.67,2.67,0,1,0-5.34,0v35a10.32,10.32,0,0,1,2.72-.38A9.42,9.42,0,0,1,32,37.68Z"/><path class="cls-1" d="M26.61,58.29v3a2.67,2.67,0,1,0,5.34,0v-3a9.42,9.42,0,0,1-2.62.35A10.32,10.32,0,0,1,26.61,58.29Z"/><path class="cls-1" d="M53.28,13.68v-11a2.67,2.67,0,1,0-5.33,0v11a10.27,10.27,0,0,1,2.72-.38A9.4,9.4,0,0,1,53.28,13.68Z"/><path class="cls-1" d="M48,34.29v27a2.67,2.67,0,1,0,5.33,0v-27a9.4,9.4,0,0,1-2.61.35A10.27,10.27,0,0,1,48,34.29Z"/><path class="cls-1" d="M8,14.22a8,8,0,1,0,8,8A8,8,0,0,0,8,14.22ZM8,24.89a2.67,2.67,0,1,1,2.67-2.67A2.68,2.68,0,0,1,8,24.89Z"/><path class="cls-1" d="M29.33,40a8,8,0,1,0,8,8A8,8,0,0,0,29.33,40Zm0,10.67A2.67,2.67,0,1,1,32,48,2.67,2.67,0,0,1,29.33,50.67Z"/><path class="cls-1" d="M50.67,16a8,8,0,1,0,8,8A8,8,0,0,0,50.67,16Zm0,10.67A2.67,2.67,0,1,1,53.33,24,2.68,2.68,0,0,1,50.67,26.67Z"/></g></g></svg>